<svg id="Layer_1" data-name="Layer 1" xmlns="http://www.w3.org/2000/svg" width="405.23" height="86.22" viewBox="0 0 405.23 86.22"><defs><style>.cls-1{fill:#fff;}.cls-2{fill:#8686fb;}</style></defs><path class="cls-1" d="M22,54.67l-.69,1.55-9,21.21H4.1l28-63.37,28,63.37H52L43.16,56.74,42.47,55,32.12,30.7Zm-3-2.24H45.66l2.59,6.89H16.35Z" transform="translate(-4.1 -10.18)"/><path class="cls-1" d="M90.32,45.87A7.87,7.87,0,0,0,84,43.37a10.94,10.94,0,0,0-5.31,1.25,8.81,8.81,0,0,0-3.53,3.5,10.44,10.44,0,0,0-1.25,5.17V77.43H67V37.77h6.9V44a12.61,12.61,0,0,1,11.81-7.07,12.55,12.55,0,0,1,10,4.18q3.66,4.19,3.66,11.34v25H92.48V53.29Q92.48,48.37,90.32,45.87Z" transform="translate(-4.1 -10.18)"/><path class="cls-2" d="M113.73,18a4.76,4.76,0,0,1,6.68,0,4.74,4.74,0,0,1,0,6.69,4.76,4.76,0,0,1-8.1-3.32A4.52,4.52,0,0,1,113.73,18Z" transform="translate(-4.1 -10.18)"/><rect class="cls-1" x="109.5" y="27.59" width="6.9" height="39.66"/><path class="cls-1" d="M189,77.43h-6.89V53.29q0-5.09-1.86-7.5t-5.73-2.42a9.84,9.84,0,0,0-4.92,1.17,7.79,7.79,0,0,0-3.19,3.4,12,12,0,0,0-1.12,5.35V77.43h-6.9V53.29c0-3.39-.61-5.89-1.85-7.5s-3.15-2.42-5.73-2.42a9.84,9.84,0,0,0-4.92,1.17,7.79,7.79,0,0,0-3.19,3.4,11.83,11.83,0,0,0-1.12,5.35V77.43h-6.9V37.77h6.9v5.78a12.7,12.7,0,0,1,4.53-5,12.21,12.21,0,0,1,6.42-1.63,12.66,12.66,0,0,1,7.11,1.94A11.17,11.17,0,0,1,164,44.32a14.53,14.53,0,0,1,5.17-5.56,13.49,13.49,0,0,1,7.07-1.85,12.58,12.58,0,0,1,6.9,1.81,11.35,11.35,0,0,1,4.35,5.3A21.07,21.07,0,0,1,189,52.43Z" transform="translate(-4.1 -10.18)"/><path class="cls-1" d="M207.54,75.66a17.86,17.86,0,0,1-6.64-7.28,23.48,23.48,0,0,1-2.37-10.78A23,23,0,0,1,201,46.74a17.86,17.86,0,0,1,6.9-7.25,20.16,20.16,0,0,1,10.31-2.58,19.58,19.58,0,0,1,10,2.45,16.17,16.17,0,0,1,6.42,7,24.36,24.36,0,0,1,2.25,10.86c0,.41,0,.82-.05,1.25s0,.71,0,.82H202.92V53.46h28.46l-2.76,4a6.56,6.56,0,0,0,.52-1.34,5.74,5.74,0,0,0,.25-1.51A12.49,12.49,0,0,0,228,48.46a10.53,10.53,0,0,0-3.92-4.05,11.36,11.36,0,0,0-5.86-1.47,12.9,12.9,0,0,0-6.77,1.68,11,11,0,0,0-4.31,4.83,18.57,18.57,0,0,0-1.6,7.72A19.29,19.29,0,0,0,207,65.1a10.75,10.75,0,0,0,4.31,5,13,13,0,0,0,6.9,1.73,14.17,14.17,0,0,0,7.15-1.77,14.65,14.65,0,0,0,5.26-5.39l5.61,3.54a20.92,20.92,0,0,1-7.81,7.54,23,23,0,0,1-11.08,2.54A18.18,18.18,0,0,1,207.54,75.66Z" transform="translate(-4.1 -10.18)"/><path class="cls-2" d="M261.55,17.08V77.43H247V17.08Zm-5.43,0h11.81a31.11,31.11,0,0,1,12.89,2.37,17.23,17.23,0,0,1,7.89,6.77,20,20,0,0,1,2.67,10.6,20,20,0,0,1-2.67,10.48,17.19,17.19,0,0,1-7.89,6.81,31.11,31.11,0,0,1-12.89,2.37H256.12v-12h11.81a10.85,10.85,0,0,0,6.9-2,6.85,6.85,0,0,0,2.5-5.69,7,7,0,0,0-2.5-5.78,10.85,10.85,0,0,0-6.9-2H256.12Z" transform="translate(-4.1 -10.18)"/><path class="cls-2" d="M312.51,10.18V77.43H299.4V10.18Z" transform="translate(-4.1 -10.18)"/><path class="cls-2" d="M333.54,67.64a4.88,4.88,0,0,0,2.07,1.64,7,7,0,0,0,2.85.56,9.06,9.06,0,0,0,4.14-1,7.81,7.81,0,0,0,3.1-2.84,8.54,8.54,0,0,0,1.21-4.66l1.38,5.18A10,10,0,0,1,346.22,73a12.83,12.83,0,0,1-5.35,4,18.53,18.53,0,0,1-7.07,1.33,17.25,17.25,0,0,1-7-1.42,11.62,11.62,0,0,1-7.11-11.16,11.05,11.05,0,0,1,4-9q4.07-3.31,11.47-3.31a28.67,28.67,0,0,1,6.51.68,23.63,23.63,0,0,1,5,1.73,10.88,10.88,0,0,1,3.1,2.15v5.78A15.39,15.39,0,0,0,345,61.35a19.67,19.67,0,0,0-5.74-.82,10.62,10.62,0,0,0-3.7.52,3.91,3.91,0,0,0-2.76,4A4.4,4.4,0,0,0,333.54,67.64Zm-11-26.42a58,58,0,0,1,8.11-3.11A35.11,35.11,0,0,1,341,36.65a27.22,27.22,0,0,1,9.4,1.51A15,15,0,0,1,357,42.51a10.44,10.44,0,0,1,2.42,7V77.43h-12.5v-25a6.24,6.24,0,0,0-.48-2.55A4.9,4.9,0,0,0,345,48a5.8,5.8,0,0,0-2.37-1.12,13.78,13.78,0,0,0-3.23-.35,22.59,22.59,0,0,0-5.22.61,26.12,26.12,0,0,0-4.44,1.42A24.2,24.2,0,0,0,327,49.93Z" transform="translate(-4.1 -10.18)"/><path class="cls-2" d="M383.46,96.4h-13.1L380,74.24,362.86,37.77h14.31L390,69.58l-6.73-.08L396,37.77h13.36Z" transform="translate(-4.1 -10.18)"/></svg>
